<?xml version="1.0" standalone="no"?>
<!DOCTYPE svg PUBLIC "-//W3C//DTD SVG 20010904//EN"
 "http://www.w3.org/TR/2001/REC-SVG-20010904/DTD/svg10.dtd">
<svg version="1.0" xmlns="http://www.w3.org/2000/svg"
 width="860.000000pt" height="597.000000pt" viewBox="0 0 860.000000 597.000000"
 preserveAspectRatio="xMidYMid meet">

<g transform="translate(0.000000,597.000000) scale(0.100000,-0.100000)"
fill="#000000" stroke="none">
<path d="M4040 5551 c-47 -25 -120 -134 -179 -268 -40 -91 -51 -108 -72 -111
-46 -5 -99 -23 -99 -34 0 -7 18 -8 55 -3 30 3 55 3 55 -2 0 -16 -16 -29 -48
-43 -22 -8 -29 -16 -21 -21 7 -4 18 -5 26 -2 18 7 17 -2 -8 -72 -30 -85 -77
-278 -85 -347 l-7 -58 -43 -11 c-60 -15 -61 -42 -1 -37 l42 3 5 -41 c7 -50 32
-91 66 -106 13 -6 24 -14 24 -18 0 -3 -15 -21 -34 -39 l-34 -33 -27 46 c-15
25 -33 46 -41 46 -20 0 -17 -19 12 -69 23 -41 26 -71 7 -71 -4 0 -26 29 -48
65 -37 61 -57 77 -69 56 -3 -5 13 -46 35 -91 25 -49 38 -85 32 -91 -5 -5 -49
21 -108 66 -102 77 -162 112 -173 100 -12 -12 17 -41 126 -126 l111 -87 -40
-53 c-44 -58 -139 -222 -139 -239 0 -16 -13 -13 -128 31 -177 66 -253 92 -259
85 -10 -10 37 -54 65 -61 51 -13 292 -107 292 -115 0 -4 -9 -33 -20 -64 -11
-32 -27 -108 -36 -169 -9 -62 -17 -113 -18 -113 0 -1 -132 3 -293 9 -280 9
-343 7 -343 -12 0 -27 73 -35 351 -39 l286 -3 6 -57 c12 -116 59 -215 162
-343 86 -107 83 -97 40 -115 -51 -21 -34 -38 26 -25 34 8 47 7 57 -3 12 -12 3
-17 -52 -36 -71 -23 -83 -32 -63 -48 13 -11 132 7 158 24 6 3 30 -11 52 -33
89 -84 205 -170 336 -250 49 -30 27 -37 -126 -41 -139 -4 -270 11 -387 46 -55
17 -60 20 -71 57 -12 40 -15 39 -29 -9 -4 -12 -14 -11 -63 4 -32 10 -61 16
-64 14 -4 -2 -10 -19 -13 -38 -4 -19 -27 -108 -52 -198 -52 -192 -65 -298 -40
-346 15 -30 20 -32 69 -32 69 0 146 38 209 102 39 40 99 125 195 274 10 15 12
1 7 -77 -8 -115 9 -227 39 -265 43 -55 137 -71 181 -31 44 38 116 175 161 305
3 7 21 -5 46 -33 48 -52 133 -111 175 -121 16 -4 34 -10 39 -14 6 -4 32 -11
58 -14 27 -4 67 -14 89 -22 22 -8 49 -14 60 -14 57 0 -44 64 -119 76 -31 4
-43 11 -43 23 1 32 18 153 23 157 3 3 39 -12 81 -33 57 -28 75 -41 70 -53 -18
-44 8 -70 27 -27 10 22 14 24 36 14 21 -9 23 -15 18 -49 -5 -30 -4 -38 8 -38
8 0 20 13 25 30 l11 30 68 -27 c361 -138 752 -197 953 -144 41 11 75 19 76 18
1 -1 11 -23 22 -49 33 -77 55 -59 30 24 -10 33 -9 41 3 49 23 14 25 12 52 -50
25 -58 41 -79 50 -64 4 7 -9 68 -26 118 -6 18 2 25 50 49 75 36 144 79 215
134 l58 45 125 -122 c148 -144 245 -211 245 -170 0 15 -96 113 -221 225 -60
54 -108 101 -107 105 2 3 47 52 101 109 l97 102 178 -76 c168 -72 239 -92 230
-63 -4 12 -57 36 -273 127 -55 23 -101 43 -103 45 -2 1 17 31 41 66 55 79 89
146 113 223 l18 59 91 -7 c274 -20 275 -20 275 -3 0 20 -68 34 -210 42 -128 8
-140 11 -140 36 0 20 7 20 56 2 7 -2 15 0 19 6 3 6 -10 20 -29 32 -22 13 -36
29 -36 41 0 18 4 20 43 14 74 -12 82 -12 82 4 0 9 -21 21 -55 31 -30 9 -56 23
-58 30 -1 8 19 30 45 50 121 90 319 452 410 748 l38 123 57 -6 c92 -9 83 25
-11 40 -41 6 -48 17 -32 42 6 11 20 11 70 2 71 -13 111 -2 72 20 -13 6 -50 17
-84 24 -51 10 -63 17 -65 34 -2 12 -16 32 -32 45 -39 33 -204 57 -443 64 -208
7 -192 0 -199 78 -2 19 -9 30 -18 30 -11 0 -16 -14 -18 -57 -2 -32 -7 -58 -12
-58 -5 0 -19 22 -31 50 -39 90 -74 95 -46 6 9 -29 17 -55 17 -58 0 -3 -24 -8
-54 -12 -29 -3 -105 -19 -167 -35 l-114 -30 -150 73 c-82 41 -167 80 -187 87
-45 16 -49 29 -9 29 42 0 81 17 81 35 0 19 -25 19 -105 -1 -40 -10 -78 -14
-101 -9 -44 8 -37 16 36 43 52 19 82 44 68 58 -4 3 -46 -12 -93 -35 -60 -28
-94 -39 -111 -35 -35 9 -38 21 -11 46 132 124 167 158 167 163 0 20 -41 -3
-86 -47 -142 -142 -140 -140 -172 -124 l-29 15 12 76 c7 42 8 78 3 81 -11 7
-38 -58 -38 -93 -1 -76 -43 -64 -66 18 -17 61 -52 109 -79 109 -22 0 -19 -18
11 -57 26 -34 50 -97 35 -91 -4 2 -71 37 -149 78 -112 60 -144 81 -153 104 -7
16 -35 63 -62 104 -50 77 -50 91 -2 92 26 0 52 17 41 27 -4 4 -35 8 -68 8 -34
0 -63 5 -65 10 -2 6 15 21 37 35 22 14 40 28 40 32 0 17 -21 16 -65 -3 -26
-11 -48 -19 -49 -17 -20 33 -126 145 -220 230 -129 117 -342 268 -379 268 -12
0 -38 -8 -57 -19z m98 -90 c44 -72 72 -139 72 -173 0 -15 -3 -17 -19 -8 -39
20 -78 12 -114 -25 -19 -19 -36 -35 -39 -35 -3 0 -9 20 -12 44 -4 24 -20 64
-37 89 l-30 46 20 39 c23 45 74 92 99 92 10 0 35 -29 60 -69z m410 -261 c20
-18 30 -35 26 -42 -4 -7 -23 -37 -42 -65 l-34 -53 -84 78 c-97 90 -99 88 91
111 6 0 25 -12 43 -29z m-623 -237 c-13 -32 -31 -91 -41 -130 -10 -40 -21 -73
-24 -73 -3 0 -29 24 -59 54 l-52 53 16 56 16 57 62 19 c34 10 72 20 83 20 l22
1 -23 -57z m894 -119 c18 -30 31 -57 28 -60 -2 -2 -16 0 -30 5 -15 6 -55 15
-91 22 -57 9 -68 15 -95 50 l-32 39 93 0 93 0 34 -56z m-36 -80 c33 -8 78 -24
99 -35 61 -31 96 -119 124 -309 9 -63 20 -119 25 -124 14 -16 89 25 173 96 45
37 96 75 114 85 29 16 34 16 42 3 19 -30 32 -127 28 -200 -6 -90 1 -134 23
-138 9 -2 55 22 101 52 121 79 262 139 306 131 l35 -6 -7 -89 c-4 -49 -15
-114 -26 -146 -27 -77 -26 -100 7 -121 24 -16 57 -18 263 -21 224 -3 236 -4
253 -23 9 -12 17 -28 17 -36 0 -18 -56 -88 -152 -191 -37 -39 -68 -79 -68 -87
0 -22 57 -60 171 -114 121 -57 211 -85 244 -77 20 5 24 1 30 -26 6 -25 4 -35
-11 -45 -11 -8 -71 -47 -134 -89 -63 -41 -123 -85 -133 -96 -24 -28 -15 -53
42 -111 l46 -48 -35 5 c-19 3 -87 13 -150 21 -63 9 -212 38 -331 65 -233 54
-303 61 -297 33 2 -9 21 -22 42 -30 93 -32 457 -104 643 -127 171 -21 208 -29
234 -48 27 -20 30 -28 26 -60 -5 -38 -44 -129 -69 -161 -13 -17 -20 -16 -132
23 -66 23 -161 63 -213 91 -96 50 -143 61 -143 34 0 -23 -12 -19 -122 41 -237
131 -378 188 -378 155 0 -17 35 -37 268 -156 129 -66 239 -127 243 -135 5 -8
30 -76 57 -150 27 -74 53 -144 58 -155 9 -23 -16 -1 -285 250 -107 99 -206
190 -220 202 -34 27 -81 40 -81 23 0 -15 32 -46 170 -169 52 -46 173 -158 268
-249 l173 -165 -28 -29 c-15 -16 -43 -39 -61 -50 l-33 -20 -27 22 c-15 13 -93
91 -174 174 -160 164 -163 166 -187 86 -10 -35 -81 -435 -81 -460 0 -4 -18
-10 -40 -12 l-41 -4 -225 223 c-124 123 -229 223 -233 223 -13 0 -68 -64 -115
-135 -25 -38 -66 -92 -91 -119 l-45 -48 -65 23 -65 23 6 48 c4 32 2 53 -6 63
-18 22 -28 10 -36 -40 -7 -47 -14 -54 -33 -31 -8 10 -8 21 -1 41 18 47 -6 87
-28 48 -12 -21 -37 26 -117 227 -32 80 -64 152 -71 159 -18 19 -50 4 -154 -70
-42 -30 -106 -65 -143 -78 l-67 -23 -42 25 c-77 45 -82 55 -74 149 4 46 16
132 26 192 23 124 26 202 8 208 -6 2 -34 1 -62 -3 -123 -17 -441 32 -483 74
-6 7 -14 28 -18 47 l-6 35 99 49 100 49 138 -7 c347 -16 524 -19 524 -8 0 26
-52 34 -293 43 -139 5 -261 11 -272 12 -13 2 18 22 85 55 58 29 109 57 114 62
14 14 -11 38 -94 91 -41 27 -70 49 -64 49 16 0 315 -91 459 -139 119 -41 155
-48 155 -33 0 34 -101 73 -485 187 -260 77 -260 77 -309 125 -41 40 -48 52
-42 74 3 14 15 30 26 36 11 6 87 13 168 17 l147 6 55 -45 c117 -96 430 -303
474 -314 30 -7 39 7 22 32 -16 22 -70 60 -244 169 -67 42 -146 95 -175 118
l-52 42 54 6 c29 4 60 14 69 23 14 13 9 21 -44 79 -62 67 -139 192 -150 243
-5 27 -1 34 39 66 l44 37 120 -39 c145 -46 233 -65 268 -56 34 9 33 40 -5 140
-39 104 -47 161 -26 169 10 4 16 18 16 36 0 41 18 49 22 9 4 -45 36 -51 44 -9
4 17 10 31 14 31 5 0 41 -37 82 -82 143 -159 144 -160 180 -156 36 3 39 9 72
151 19 82 51 157 66 157 7 0 39 -7 73 -16z m-906 -252 c9 -16 3 -25 -46 -65
l-56 -46 -25 26 c-14 14 -20 27 -15 29 6 3 35 20 65 39 30 19 57 35 60 35 3 0
10 -8 17 -18z m2719 -236 c20 -25 46 -59 57 -75 l19 -31 -116 0 c-88 0 -114 3
-112 13 2 6 10 40 16 75 l13 62 43 0 c39 0 47 -4 80 -44z m-393 -73 l68 -57
-42 -12 -42 -13 -69 57 -69 57 33 12 c49 17 48 18 121 -44z m895 24 c3 -12 -4
-20 -17 -24 -27 -7 -27 -33 -1 -40 30 -8 26 -43 -5 -43 -18 0 -25 -5 -25 -20
0 -14 7 -20 21 -20 34 0 12 -17 -31 -23 -22 -3 -62 -19 -90 -36 l-50 -31 0 29
c0 69 -11 93 -53 111 l-40 18 49 31 c27 18 65 36 84 41 19 5 51 13 70 19 50
14 84 9 88 -12z m-198 -545 l24 -42 -27 -55 -27 -55 -80 0 c-44 0 -80 3 -80 6
0 4 17 37 38 73 21 36 49 92 62 123 l23 58 22 -33 c12 -17 32 -51 45 -75z
m-3500 -1148 c0 -9 -7 -14 -17 -12 -25 5 -28 28 -4 28 12 0 21 -6 21 -16z"/>
<path d="M4970 4231 c-49 -20 -74 -49 -61 -70 7 -11 21 -7 74 19 56 27 74 32
123 29 39 -3 58 0 61 8 12 34 -123 43 -197 14z"/>
<path d="M4835 4150 c-10 -17 20 -44 40 -36 9 3 15 14 13 23 -4 21 -43 30 -53
13z"/>
<path d="M5023 4141 c-104 -64 17 -223 126 -166 66 34 59 121 -14 162 -49 28
-71 29 -112 4z m97 -51 c0 -21 -33 -29 -45 -10 -9 15 4 30 26 30 12 0 19 -7
19 -20z"/>
<path d="M5455 4021 c-3 -6 8 -25 25 -44 34 -39 53 -113 43 -172 -5 -34 -4
-37 17 -33 38 5 46 29 33 103 -16 95 -91 188 -118 146z"/>
<path d="M4512 3959 c-26 -8 -38 -20 -53 -55 -33 -73 -17 -116 89 -246 38 -45
86 -114 108 -153 47 -85 106 -145 178 -180 l54 -26 -33 -87 c-55 -150 -88
-205 -160 -269 -134 -118 -222 -146 -317 -100 -90 45 -189 157 -242 275 -22
48 -52 59 -42 15 25 -105 158 -265 263 -318 114 -58 224 -29 355 94 l68 63 0
-41 c0 -75 22 -185 47 -238 65 -140 245 -201 423 -144 74 24 98 37 87 48 -5 4
-47 -2 -95 -12 -48 -11 -117 -20 -153 -20 -56 0 -73 5 -114 30 -98 60 -142
150 -152 306 -5 72 -2 99 17 160 20 67 84 219 92 219 2 0 35 -11 73 -25 97
-34 136 -32 225 11 41 19 115 45 164 56 72 17 96 27 128 56 21 19 43 43 49 53
15 28 -7 62 -64 99 -90 59 -158 81 -305 96 -84 9 -151 22 -178 34 -24 10 -86
59 -137 108 -169 160 -281 218 -375 191z m78 -59 c0 -5 -4 -10 -10 -10 -5 0
-10 5 -10 10 0 6 5 10 10 10 6 0 10 -4 10 -10z m-35 -10 c3 -5 -1 -10 -10 -10
-9 0 -13 5 -10 10 3 6 8 10 10 10 2 0 7 -4 10 -10z m138 -15 c54 -25 116 -80
104 -91 -3 -4 -27 12 -52 34 -26 23 -63 46 -83 53 -44 14 -64 29 -38 29 9 0
41 -11 69 -25z m137 -125 c0 -5 -2 -10 -4 -10 -3 0 -8 5 -11 10 -3 6 -1 10 4
10 6 0 11 -4 11 -10z m30 -40 c0 -5 -2 -10 -4 -10 -3 0 -8 5 -11 10 -3 6 -1
10 4 10 6 0 11 -4 11 -10z m560 -320 c0 -5 -4 -10 -10 -10 -5 0 -10 5 -10 10
0 6 5 10 10 10 6 0 10 -4 10 -10z m-52 -22 c-3 -7 -27 -17 -54 -23 -27 -6 -64
-18 -82 -28 -18 -10 -43 -16 -55 -14 -17 3 -10 9 36 30 31 15 73 29 93 31 20
3 39 7 42 10 10 11 24 6 20 -6z m-228 -82 c0 -11 -19 -15 -25 -6 -3 5 1 10 9
10 9 0 16 -2 16 -4z"/>
<path d="M5245 3935 c-35 -34 -33 -76 5 -119 69 -78 185 -49 182 47 -1 23 -11
41 -36 65 -47 42 -113 46 -151 7z m113 -38 c3 -14 -1 -18 -20 -15 -12 2 -24
11 -26 21 -3 14 1 18 20 15 12 -2 24 -11 26 -21z"/>
<path d="M5485 3740 c-9 -15 13 -40 37 -40 14 0 19 6 16 23 -3 24 -41 36 -53
17z"/>
<path d="M2000 4606 c0 -7 7 -30 15 -49 22 -52 19 -67 -10 -67 -18 0 -25 5
-25 20 0 32 -31 100 -46 100 -18 0 -17 -15 1 -65 8 -22 14 -45 15 -51 0 -7
-40 -19 -92 -28 -289 -52 -473 -149 -494 -262 -8 -44 8 -113 37 -161 29 -46
103 -67 218 -61 73 4 99 11 178 46 144 65 197 77 258 62 66 -17 98 -33 146
-77 62 -56 83 -104 76 -177 -5 -58 -84 -320 -181 -601 l-44 -129 -56 -11 c-64
-13 -87 -28 -69 -46 9 -9 23 -9 57 0 58 14 56 15 56 -13 0 -20 -6 -24 -46 -29
-51 -5 -70 -18 -61 -41 5 -13 12 -14 32 -6 15 6 37 10 51 10 23 0 24 -3 24
-62 1 -112 49 -287 115 -417 l27 -54 -45 -91 c-51 -103 -81 -192 -97 -284 -9
-52 -8 -80 10 -174 11 -62 20 -130 20 -152 l0 -41 28 40 c27 40 27 42 26 190
l-1 151 101 0 c160 1 236 33 236 98 0 50 -24 118 -59 170 l-32 46 78 -37 c97
-45 171 -72 199 -73 42 0 49 24 48 164 l-1 131 -81 151 c-92 171 -120 257
-128 394 -9 134 5 192 85 360 95 198 187 410 202 462 18 70 15 148 -9 195 -48
93 -202 227 -340 297 -74 38 -163 58 -259 60 -81 1 -84 2 -90 26 -11 44 -43
100 -58 100 -8 0 -15 -6 -15 -14z m145 -175 c3 -16 7 -73 7 -127 2 -74 -3
-109 -16 -140 l-17 -42 -44 13 c-46 14 -119 4 -193 -26 -42 -18 -52 -5 -52 72
0 131 44 251 94 257 18 2 33 -3 42 -15 13 -17 14 -17 20 5 9 31 47 29 62 -3
16 -34 32 -31 32 5 0 26 3 30 29 30 24 0 31 -5 36 -29z m517 -248 c51 -53 81
-124 73 -172 l-6 -38 -112 -6 c-124 -6 -195 -24 -251 -62 -45 -31 -46 -31 -46
0 0 13 -7 40 -16 59 -17 34 -16 34 21 90 66 99 169 164 260 166 34 0 47 -6 77
-37z m-84 -588 c2 -2 -13 -34 -34 -72 -20 -37 -52 -102 -69 -144 l-31 -76 -18
25 c-16 21 -144 120 -190 147 -16 9 -16 13 2 56 19 43 23 46 73 57 30 6 63 14
74 16 23 6 186 -2 193 -9z m-362 -430 c57 -17 123 -58 192 -120 43 -38 50 -51
55 -92 3 -26 8 -55 11 -63 5 -13 -14 -15 -141 -15 -97 0 -161 -5 -186 -14 -21
-7 -41 -10 -45 -7 -3 4 -8 33 -10 65 -4 53 -2 59 17 64 28 7 27 25 -1 29 -36
5 -29 39 9 52 41 14 46 30 11 34 -29 3 -33 16 -22 60 8 27 38 29 110 7z"/>
<path d="M3160 2613 l0 -38 20 25 c13 18 16 28 8 37 -18 23 -28 14 -28 -24z"/>
<path d="M2828 2428 c36 -91 51 -102 101 -74 l23 13 -43 35 c-24 19 -56 43
-71 52 l-27 17 17 -43z"/>
<path d="M4222 2053 c2 -11 14 -19 28 -21 14 -1 55 -10 92 -19 37 -9 71 -14
75 -10 19 19 -99 67 -165 67 -26 0 -33 -4 -30 -17z"/>
<path d="M2586 1998 c-3 -13 -10 -52 -16 -88 -12 -71 -35 -167 -50 -205 l-9
-25 -53 19 c-76 28 -170 51 -211 51 -59 0 -62 -14 -32 -150 15 -67 25 -123 23
-125 -2 -2 -28 5 -58 15 -70 25 -116 26 -124 3 -4 -9 -10 -52 -13 -95 -4 -57
-10 -78 -20 -78 -7 0 -17 10 -22 23 -11 28 -65 96 -92 115 -19 13 -18 10 6
-37 37 -75 85 -223 85 -266 0 -48 -35 -111 -71 -126 -34 -14 -92 -5 -110 18
-8 9 -14 39 -14 67 0 35 -6 61 -20 81 l-20 30 -5 -78 c-6 -89 -19 -107 -79
-107 -30 0 -101 31 -101 44 0 2 7 23 15 46 16 45 21 160 7 160 -4 0 -14 -27
-21 -61 -10 -50 -20 -68 -60 -110 -41 -43 -52 -49 -88 -49 -26 0 -53 9 -77 25
l-36 24 0 -53 c0 -62 24 -142 54 -175 29 -32 93 -61 138 -61 28 0 46 8 72 31
l36 31 61 -31 c34 -17 70 -31 80 -31 30 0 66 21 80 46 l12 24 32 -25 c44 -33
77 -40 111 -22 33 17 86 71 103 104 19 38 13 111 -14 165 -14 27 -25 51 -25
52 0 2 30 6 68 9 180 15 336 141 391 317 12 36 21 76 21 88 0 12 2 22 6 22 3
0 37 -26 76 -57 l71 -57 -6 -103 c-5 -100 -6 -105 -45 -166 -92 -142 -85 -261
21 -338 51 -37 90 -37 162 1 31 17 73 30 92 30 73 0 123 47 123 117 l0 42 48
-6 c38 -4 52 -1 72 15 21 17 25 30 28 94 4 69 2 76 -23 106 -17 20 -42 36 -69
43 -33 8 -45 17 -54 41 l-11 30 32 -6 c18 -4 75 -9 128 -12 77 -5 108 -3 153
11 31 10 55 19 53 21 -2 2 -32 -1 -66 -7 -83 -13 -183 1 -331 47 -140 44 -239
88 -331 150 -102 67 -105 75 -80 175 22 86 28 223 11 234 -5 3 -12 -4 -14 -17z
m369 -583 c39 -6 45 -11 56 -42 6 -19 9 -35 7 -36 -1 -1 -28 -15 -60 -30 -57
-29 -143 -95 -134 -104 3 -3 17 4 33 15 41 29 170 92 188 92 52 0 105 -60 105
-119 0 -93 -85 -128 -121 -49 -19 42 -43 51 -32 11 23 -86 -3 -164 -64 -190
-40 -16 -53 -11 -53 23 0 27 -25 94 -35 94 -4 0 -6 -19 -5 -42 4 -71 1 -86
-22 -108 -39 -36 -105 -21 -158 35 -22 23 -25 35 -24 93 0 57 6 78 37 137 37
71 57 147 57 216 0 70 2 71 96 39 46 -16 104 -32 129 -35z"/>
<path d="M4250 1713 c-12 -22 -69 -128 -111 -209 -37 -72 -34 -94 13 -94 32 1
125 30 200 63 l36 16 7 -69 7 -70 -50 -48 c-45 -42 -101 -136 -89 -148 3 -3
14 11 26 30 30 48 115 123 154 134 18 6 58 13 91 15 52 5 59 4 63 -14 6 -20
32 -26 49 -9 5 5 15 6 24 0 12 -8 11 -13 -8 -33 -39 -42 -18 -76 23 -37 l24
23 12 -29 c18 -45 15 -92 -7 -114 -19 -20 -20 -20 -37 13 -21 39 -59 64 -102
68 -63 5 -68 -2 -16 -20 30 -11 62 -30 72 -43 26 -34 41 -104 33 -155 -5 -37
-13 -50 -47 -74 -40 -29 -63 -34 -103 -23 -18 5 -21 13 -20 67 2 102 -42 155
-114 141 l-31 -7 38 -21 c69 -39 92 -128 54 -213 -23 -49 -90 -119 -129 -134
-100 -38 -252 25 -252 104 0 17 16 79 35 140 59 179 66 216 55 258 -13 46 -75
102 -134 122 -38 13 -41 16 -46 58 l-5 44 -23 -35 c-25 -40 -48 -105 -57 -167
-6 -40 -8 -42 -48 -48 -23 -4 -53 -5 -67 -4 -56 5 -109 -2 -124 -16 -17 -17
-13 -35 16 -77 19 -28 19 -28 -1 -28 -23 0 -51 -36 -51 -65 1 -11 9 -45 20
-75 10 -30 17 -56 16 -58 -2 -1 -54 -6 -115 -11 -138 -10 -175 -31 -53 -31
134 0 179 -14 234 -72 60 -63 77 -112 54 -155 -19 -37 -8 -45 48 -36 43 7 73
33 97 87 43 96 11 172 -100 238 l-63 36 37 17 c72 35 128 135 160 290 9 44 17
81 19 82 8 8 57 -18 90 -47 64 -57 65 -132 6 -315 -42 -130 -46 -160 -24 -193
24 -36 40 -49 102 -79 136 -64 300 0 333 131 l11 43 45 -10 c105 -22 168 33
180 158 4 48 13 80 29 103 33 48 38 89 19 137 -10 21 -13 41 -9 42 5 2 25 13
44 25 l35 23 -27 3 c-15 2 -40 -4 -56 -12 -27 -14 -31 -14 -47 4 -17 18 -15
20 39 46 48 24 74 49 63 60 -8 8 -97 -25 -127 -46 -24 -17 -39 -21 -65 -16
-18 4 -66 0 -107 -9 -40 -8 -73 -15 -73 -15 0 170 -1 176 -26 230 -26 54 -81
120 -119 140 -15 8 -22 7 -30 -7z"/>
<path d="M1550 1500 c0 -11 6 -23 14 -26 7 -3 36 -36 65 -75 28 -38 56 -69 61
-69 33 0 -30 124 -83 164 -41 31 -57 33 -57 6z"/>
<path d="M1477 1466 c-3 -7 7 -26 23 -41 16 -15 41 -47 56 -71 48 -75 74 -63
34 16 -20 40 -84 110 -99 110 -5 0 -11 -6 -14 -14z"/>
<path d="M3455 1410 c8 -16 15 -37 16 -47 0 -10 3 -13 6 -6 6 17 -16 83 -28
83 -5 0 -3 -13 6 -30z"/>
<path d="M3482 1303 c-3 -56 -19 -79 -84 -126 -35 -25 -103 -84 -153 -131
l-90 -86 125 79 c69 44 140 91 157 106 38 31 56 82 51 145 -3 33 -5 36 -6 13z"/>
<path d="M3264 655 c35 -84 29 -153 -18 -200 l-23 -23 23 -10 c43 -20 94 -25
125 -12 l31 13 -32 25 c-28 22 -30 28 -26 66 7 55 -12 103 -53 135 -31 23 -34
24 -27 6z"/>
<path d="M3525 574 c27 -51 32 -93 13 -112 -18 -18 3 -33 56 -39 53 -6 68 3
98 60 l20 40 -27 -7 c-34 -9 -95 11 -95 31 0 19 -54 73 -74 73 -13 0 -11 -8 9
-46z"/>
</g>
</svg>
